:SAMPLES-PER-SECOND 30
:FULLY-SPECIFIED
:DEGREES
639
root  5.837 41.0108 -4.75666 173.496 -85.5651 -175.243
RightUpLeg  0.0857459 -7.53412 -5.34349
RightLeg  2.34924 -0.644761 3.16269
RightFoot  0.574486 -0.0590161 0.602471
RightToes  -5.8209e-011 0 -3.6325e-017
Spine  -1.01844 0.805924 3.67449
Spine1  4.18784 1.39967 -3.21815
HEad  47.4001 9.17251 -173.965
LeftShoulder1  0.411916 0.897686 -8.11115
LeftArm  -18.9862 6.34709 3.35545
LeftForeArm  14.2886 -11.7457 -2.7181
LeftHand  -0.244104 0.0205437 5.32207
RightShoulder  0.239925 -1.52983 4.24499
RightArm  -24.6193 1.88484 -0.701659
RightForeArm  0.152965 8.10366 3.5728
RightHand  -0.52172 0.778142 -9.92141
LeftUpLeg  2.38048 5.13585 2.55467
LeftLeg  2.90219 10.8587 -3.5414
LeftFoot  -3.74064 -0.159809 2.74471
LeftToes  1.76439e-010 -1.07097e-011 2.32476e-011
640
root  5.697 41.0157 -4.8596 172.615 -86.0717 -174.27
RightUpLeg  0.215706 -7.55644 -5.24213
RightLeg  2.51798 -1.13752 3.23352
RightFoot  0.309363 -0.0368057 0.379908
RightToes  -5.8209e-011 0 -3.6325e-017
Spine  -1.14663 0.78982 3.46947
Spine1  3.80097 1.32674 -3.00008
HEad  47.0455 9.51872 -173.821
LeftShoulder1  0.416643 0.83769 -7.90834
LeftArm  -19.045 5.41564 3.39577
LeftForeArm  13.9203 -11.4088 -2.79685
LeftHand  -0.244104 0.0205437 5.32207
RightShoulder  0.201792 -1.78337 3.76003
RightArm  -25.0254 2.68268 -1.04868
RightForeArm  -0.20681 7.58805 3.48497
RightHand  -0.557616 1.02937 -10.2037
LeftUpLeg  2.51891 5.15672 2.71923
LeftLeg  2.80275 10.2775 -3.51224
LeftFoot  -3.78135 -0.149142 2.60405
LeftToes  1.76439e-010 -1.07097e-011 2.32476e-011
641
root  5.56787 41.0184 -4.95032 171.274 -86.5749 -172.902
RightUpLeg  0.432894 -7.55617 -5.14571
RightLeg  2.6569 -1.62383 3.26566
RightFoot  0.0311256 -0.0250883 0.252442
RightToes  -5.8209e-011 0 -3.6325e-017
Spine  -1.22989 0.707051 3.35564
Spine1  3.50968 1.21961 -2.92393
HEad  46.7421 9.64228 -173.746
LeftShoulder1  0.482462 0.462657 -8.19619
LeftArm  -18.6292 4.56855 3.54563
LeftForeArm  13.5427 -10.2754 -2.9266
LeftHand  -0.244104 0.0205437 5.32207
RightShoulder  0.194732 -1.84643 3.77532
RightArm  -25.4424 3.49205 -1.07295
RightForeArm  -0.0435117 6.73103 3.30065
RightHand  -0.592209 1.41564 -10.2426
LeftUpLeg  2.7064 5.19615 2.88835
LeftLeg  2.70584 9.69465 -3.49894
LeftFoot  -3.82982 -0.141441 2.51311
LeftToes  1.76439e-010 -1.07097e-011 2.32476e-011
642
root  5.44218 41.0184 -5.02952 169.598 -86.9704 -171.283
RightUpLeg  0.796452 -7.49965 -5.03602
RightLeg  2.64395 -2.08279 3.24138
RightFoot  -0.275957 -0.0248666 0.249
RightToes  -5.8209e-011 0 -3.6325e-017
Spine  -1.31001 0.592054 3.28643
Spine1  3.44917 1.09658 -2.90829
HEad  46.5965 9.71737 -173.609
LeftShoulder1  0.575156 -0.0118475 -8.77814
LeftArm  -17.6898 3.82329 3.63255
LeftForeArm  13.3553 -8.46536 -3.13112
LeftHand  -0.244104 0.0205437 5.32207
RightShoulder  0.218794 -1.68472 4.08693
RightArm  -25.6597 4.15617 -0.695715
RightForeArm  0.171509 5.68126 3.10805
RightHand  -0.603767 1.5319 -10.2734
LeftUpLeg  2.95789 5.24733 3.05947
LeftLeg  2.66789 9.20492 -3.47169
LeftFoot  -3.90759 -0.133459 2.41901
LeftToes  1.76439e-010 -1.07097e-011 2.32476e-011
643
root  5.32502 41.0194 -5.10512 168.215 -87.2369 -169.974
RightUpLeg  1.1289 -7.43126 -4.92208
RightLeg  2.62489 -2.41634 3.20285
RightFoot  -0.526421 -0.0224743 0.211861
RightToes  -5.8209e-011 0 -3.6325e-017
Spine  -1.38385 0.512449 3.13489
Spine1  3.51413 1.0011 -2.81282
HEad  46.8006 9.90147 -173.318
LeftShoulder1  0.674051 -0.492137 -9.36825
LeftArm  -16.4356 3.28272 3.41043
LeftForeArm  13.1303 -6.40708 -3.39213
LeftHand  -0.244104 0.0205437 5.32207
RightShoulder  0.267985 -1.35696 4.60186
RightArm  -25.1072 4.5397 -0.128691
RightForeArm  0.201214 4.53431 3.08166
RightHand  -0.590566 1.32478 -10.3453
LeftUpLeg  3.22268 5.30247 3.22504
LeftLeg  2.63768 8.81895 -3.45456
LeftFoot  -3.99014 -0.122608 2.28065
LeftToes  1.76439e-010 -1.07097e-011 2.32476e-011
644
root  5.22052 41.0206 -5.18114 167.247 -87.4159 -168.986
RightUpLeg  1.26906 -7.3829 -4.80705
RightLeg  2.72649 -2.61896 3.18497
RightFoot  -0.723119 -0.0148706 0.093813
RightToes  -5.8209e-011 0 -3.6325e-017
Spine  -1.46612 0.496944 2.88264
Spine1  3.53019 0.959563 -2.63893
HEad  47.3815 10.1088 -172.977
LeftShoulder1  0.769428 -0.963973 -9.78002
LeftArm  -15.21 2.98236 2.88119
LeftForeArm  12.7304 -4.39421 -3.67609
LeftHand  -0.244104 0.0205437 5.32207
RightShoulder  0.331962 -0.970185 5.30395
RightArm  -23.6096 4.7197 0.335512
RightForeArm  1.27187 3.14914 3.20415
RightHand  -0.545172 1.13028 -9.82873
LeftUpLeg  3.38496 5.34853 3.37382
LeftLeg  2.58686 8.53378 -3.4478
LeftFoot  -4.05601 -0.112013 2.1384
LeftToes  1.76439e-010 -1.07097e-011 2.32476e-011
